<svg xmlns="http://www.w3.org/2000/svg" width="1600" height="900" viewBox="0 0 1600 900" fill="none" role="img" aria-label="Canada destination">
  <defs>
    <linearGradient id="bg" x1="120" y1="60" x2="1480" y2="860" gradientUnits="userSpaceOnUse">
      <stop stop-color="#07070B"/>
      <stop offset="0.55" stop-color="#15152A"/>
      <stop offset="1" stop-color="#0A0A10"/>
    </linearGradient>
    <linearGradient id="accent" x1="0" y1="0" x2="1600" y2="900" gradientUnits="userSpaceOnUse">
      <stop stop-color="#F5C76A" stop-opacity="0"/>
      <stop offset="0.55" stop-color="#F5C76A" stop-opacity="0.55"/>
      <stop offset="1" stop-color="#A855F7" stop-opacity="0"/>
    </linearGradient>
    <filter id="glow" x="-200" y="-200" width="2000" height="1300" filterUnits="userSpaceOnUse" color-interpolation-filters="sRGB">
      <feGaussianBlur stdDeviation="60"/>
    </filter>
    <pattern id="grid" width="84" height="84" patternUnits="userSpaceOnUse">
      <path d="M84 0H0V84" stroke="rgba(255,255,255,0.06)" stroke-width="2" fill="none"/>
    </pattern>
  </defs>
  <rect width="1600" height="900" rx="44" fill="url(#bg)"/>
  <rect width="1600" height="900" rx="44" fill="url(#grid)" opacity="0.55"/>
  <circle cx="1260" cy="250" r="230" fill="rgba(245,199,106,0.32)" filter="url(#glow)"/>
  <circle cx="320" cy="760" r="280" fill="rgba(168,85,247,0.18)" filter="url(#glow)"/>
  <path d="M120 320 C420 130, 860 120, 1480 340" stroke="url(#accent)" stroke-width="7" stroke-linecap="round" opacity="0.9"/>
  <path d="M140 700 C520 860, 950 860, 1460 630" stroke="url(#accent)" stroke-width="6" stroke-linecap="round" opacity="0.7"/>
  <g opacity="0.42">
    <path d="M1060 260 L1180 660 L1300 260" stroke="rgba(255,255,255,0.10)" stroke-width="70" stroke-linecap="round" stroke-linejoin="round"/>
    <path d="M1100 260 L1180 500 L1260 260" stroke="rgba(255,255,255,0.16)" stroke-width="22" stroke-linecap="round" stroke-linejoin="round"/>
  </g>
  <rect x="120" y="120" width="1360" height="660" rx="44" stroke="rgba(255,255,255,0.10)" stroke-width="2"/>
</svg>
