<svg xmlns="http://www.w3.org/2000/svg" width="1600" height="900" viewBox="0 0 1600 900" fill="none" role="img" aria-label="United States destination">
  <defs>
    <linearGradient id="bg" x1="140" y1="80" x2="1460" y2="840" gradientUnits="userSpaceOnUse">
      <stop stop-color="#07070B"/>
      <stop offset="0.55" stop-color="#1A1228"/>
      <stop offset="1" stop-color="#0A0A10"/>
    </linearGradient>
    <linearGradient id="accent" x1="0" y1="0" x2="1600" y2="900" gradientUnits="userSpaceOnUse">
      <stop stop-color="#F472B6" stop-opacity="0"/>
      <stop offset="0.55" stop-color="#F472B6" stop-opacity="0.55"/>
      <stop offset="1" stop-color="#60A5FA" stop-opacity="0"/>
    </linearGradient>
    <filter id="glow" x="-200" y="-200" width="2000" height="1300" filterUnits="userSpaceOnUse" color-interpolation-filters="sRGB">
      <feGaussianBlur stdDeviation="60"/>
    </filter>
    <pattern id="grid" width="84" height="84" patternUnits="userSpaceOnUse">
      <path d="M84 0H0V84" stroke="rgba(255,255,255,0.06)" stroke-width="2" fill="none"/>
    </pattern>
  </defs>
  <rect width="1600" height="900" rx="44" fill="url(#bg)"/>
  <rect width="1600" height="900" rx="44" fill="url(#grid)" opacity="0.55"/>
  <circle cx="1260" cy="260" r="250" fill="rgba(244,114,182,0.22)" filter="url(#glow)"/>
  <circle cx="320" cy="760" r="300" fill="rgba(96,165,250,0.14)" filter="url(#glow)"/>
  <path d="M120 320 C440 140, 880 120, 1480 340" stroke="url(#accent)" stroke-width="7" stroke-linecap="round" opacity="0.9"/>
  <path d="M140 700 C520 860, 950 860, 1460 630" stroke="url(#accent)" stroke-width="6" stroke-linecap="round" opacity="0.7"/>
  <g opacity="0.38">
    <path d="M1040 670 V370" stroke="rgba(255,255,255,0.14)" stroke-width="66" stroke-linecap="round"/>
    <path d="M1140 670 V420" stroke="rgba(255,255,255,0.12)" stroke-width="46" stroke-linecap="round"/>
    <path d="M1240 670 V450" stroke="rgba(255,255,255,0.10)" stroke-width="36" stroke-linecap="round"/>
  </g>
  <rect x="120" y="120" width="1360" height="660" rx="44" stroke="rgba(255,255,255,0.10)" stroke-width="2"/>
</svg>
